<svg width="80" height="80" viewBox="0 0 80 80" fill="none" xmlns="http://www.w3.org/2000/svg">
<rect width="80" height="80" rx="40" fill="#4B3C3D"/>
<path d="M43 49C43 49.7957 42.684 50.5587 42.1214 51.1213C41.5587 51.6839 40.7957 52 40 52C39.2044 52 38.4413 51.6839 37.8787 51.1213C37.3161 50.5587 37 49.7957 37 49C37 48.2044 37.3161 47.4413 37.8787 46.8787C38.4413 46.3161 39.2044 46 40 46C40.7957 46 41.5587 46.3161 42.1214 46.8787C42.684 47.4413 43 48.2044 43 49ZM38 40C38 40.5304 38.2108 41.0392 38.5858 41.4142C38.9609 41.7893 39.4696 42 40 42C40.5305 42 41.0392 41.7893 41.4143 41.4142C41.7893 41.0392 42 40.5304 42 40V30C42 29.4696 41.7893 28.9609 41.4143 28.5858C41.0392 28.2107 40.5305 28 40 28C39.4696 28 38.9609 28.2107 38.5858 28.5858C38.2108 28.9609 38 29.4696 38 30V40ZM35.636 18.548C36.0701 17.7718 36.7033 17.1254 37.4704 16.6755C38.2375 16.2256 39.1107 15.9884 40 15.9884C40.8893 15.9884 41.7626 16.2256 42.5297 16.6755C43.2968 17.1254 43.93 17.7718 44.364 18.548L63.364 52.556C63.7893 53.3167 64.0084 54.1753 63.9996 55.0467C63.9907 55.9181 63.7543 56.7721 63.3137 57.524C62.873 58.2759 62.2436 58.8996 61.4876 59.3332C60.7317 59.7668 59.8755 59.9953 59.004 59.996H20.984C20.1122 59.996 19.2556 59.768 18.4991 59.3347C17.7426 58.9013 17.1125 58.2777 16.6714 57.5257C16.2303 56.7737 15.9935 55.9195 15.9845 55.0477C15.9755 54.1759 16.1946 53.317 16.62 52.556L35.636 18.548ZM40.872 20.5C40.7854 20.3442 40.6587 20.2144 40.505 20.124C40.3514 20.0336 40.1763 19.9859 39.998 19.9859C39.8198 19.9859 39.6447 20.0336 39.491 20.124C39.3374 20.2144 39.2107 20.3442 39.124 20.5L20.12 54.508C20.035 54.6601 19.9912 54.8319 19.9929 55.0062C19.9947 55.1804 20.042 55.3512 20.1301 55.5016C20.2182 55.652 20.3441 55.7767 20.4953 55.8634C20.6465 55.9502 20.8177 55.9959 20.992 55.996H59.004C59.1783 55.9959 59.3496 55.9502 59.5008 55.8634C59.6519 55.7767 59.7778 55.652 59.866 55.5016C59.9541 55.3512 60.0014 55.1804 60.0031 55.0062C60.0049 54.8319 59.9611 54.6601 59.876 54.508L40.872 20.5Z" fill="#E72D38"/>
</svg>
