<svg width="42" height="42" viewBox="0 0 42 42" fill="none" xmlns="http://www.w3.org/2000/svg">
<path d="M16.8307 8.49984H25.1641C25.1641 7.39477 24.7251 6.33496 23.9437 5.55356C23.1623 4.77216 22.1025 4.33317 20.9974 4.33317C19.8923 4.33317 18.8325 4.77216 18.0511 5.55356C17.2697 6.33496 16.8307 7.39477 16.8307 8.49984ZM12.6641 8.49984C12.6641 6.2897 13.542 4.17008 15.1048 2.60728C16.6676 1.04448 18.7873 0.166504 20.9974 0.166504C23.2075 0.166504 25.3272 1.04448 26.89 2.60728C28.4528 4.17008 29.3307 6.2897 29.3307 8.49984H39.7474C40.2999 8.49984 40.8298 8.71933 41.2205 9.11003C41.6112 9.50073 41.8307 10.0306 41.8307 10.5832C41.8307 11.1357 41.6112 11.6656 41.2205 12.0563C40.8298 12.447 40.2999 12.6665 39.7474 12.6665H37.9099L36.0641 34.2082C35.8866 36.2883 34.9348 38.2261 33.3971 39.6381C31.8593 41.0501 29.8476 41.8334 27.7599 41.8332H14.2349C12.1472 41.8334 10.1355 41.0501 8.59771 39.6381C7.05994 38.2261 6.10818 36.2883 5.93073 34.2082L4.0849 12.6665H2.2474C1.69486 12.6665 1.16496 12.447 0.774257 12.0563C0.383556 11.6656 0.164063 11.1357 0.164062 10.5832C0.164063 10.0306 0.383556 9.50073 0.774257 9.11003C1.16496 8.71933 1.69486 8.49984 2.2474 8.49984H12.6641ZM27.2474 20.9998C27.2474 20.4473 27.0279 19.9174 26.6372 19.5267C26.2465 19.136 25.7166 18.9165 25.1641 18.9165C24.6115 18.9165 24.0816 19.136 23.6909 19.5267C23.3002 19.9174 23.0807 20.4473 23.0807 20.9998V29.3332C23.0807 29.8857 23.3002 30.4156 23.6909 30.8063C24.0816 31.197 24.6115 31.4165 25.1641 31.4165C25.7166 31.4165 26.2465 31.197 26.6372 30.8063C27.0279 30.4156 27.2474 29.8857 27.2474 29.3332V20.9998ZM16.8307 18.9165C16.2782 18.9165 15.7483 19.136 15.3576 19.5267C14.9669 19.9174 14.7474 20.4473 14.7474 20.9998V29.3332C14.7474 29.8857 14.9669 30.4156 15.3576 30.8063C15.7483 31.197 16.2782 31.4165 16.8307 31.4165C17.3833 31.4165 17.9132 31.197 18.3039 30.8063C18.6946 30.4156 18.9141 29.8857 18.9141 29.3332V20.9998C18.9141 20.4473 18.6946 19.9174 18.3039 19.5267C17.9132 19.136 17.3833 18.9165 16.8307 18.9165Z" fill="#E72D38"/>
</svg>
