<svg width="72" height="22" viewBox="0 0 72 22" fill="none" xmlns="http://www.w3.org/2000/svg">
<path d="M15.8061 19.969V2.06738H23.5965C25.0878 2.06738 26.3605 2.30922 27.4146 2.79289C28.4752 3.27073 29.2819 3.94962 29.8347 4.82955C30.3939 5.70366 30.6735 6.73219 30.6735 7.91514C30.6735 9.10393 30.3907 10.1266 29.825 10.9833C29.2594 11.834 28.4399 12.4867 27.3664 12.9412C26.2994 13.3958 25.0074 13.623 23.4905 13.623H18.2744V10.5812H22.8156C23.6126 10.5812 24.2747 10.4821 24.8018 10.284C25.3288 10.0858 25.7209 9.78864 25.978 9.39238C26.2416 8.99612 26.3733 8.50371 26.3733 7.91514C26.3733 7.32075 26.2416 6.8196 25.978 6.41168C25.7209 6.00377 25.3256 5.69492 24.7921 5.48513C24.265 5.26952 23.5998 5.16171 22.7963 5.16171H19.9809V19.969H15.8061ZM26.4698 11.8224L31.3773 19.969H26.7686L21.9671 11.8224H26.4698Z" fill="#BE212A"/>
<path d="M36.1692 19.969V2.06738H49.4747V5.18794H40.3441V9.45357H48.7902V12.5741H40.3441V16.8485H49.5133V19.969H36.1692Z" fill="#BE212A"/>
<path d="M62.3391 19.969H55.3392V2.06738H62.3969C64.3831 2.06738 66.0929 2.42577 67.5263 3.14253C68.9597 3.85347 70.062 4.87617 70.8334 6.21064C71.6111 7.54511 72 9.1418 72 11.0007C72 12.8655 71.6111 14.468 70.8334 15.8083C70.062 17.1486 68.9532 18.1771 67.507 18.8939C66.0672 19.6107 64.3445 19.969 62.3391 19.969ZM59.5141 16.7261H62.1655C63.3997 16.7261 64.4377 16.528 65.2798 16.1317C66.1282 15.7296 66.7646 15.109 67.1888 14.2699C67.6195 13.4249 67.8348 12.3352 67.8348 11.0007C67.8348 9.67792 67.6195 8.59694 67.1888 7.7578C66.7646 6.91866 66.1315 6.30096 65.2894 5.9047C64.4474 5.50844 63.4093 5.31031 62.1752 5.31031H59.5141V16.7261Z" fill="#BE212A"/>
<path d="M3.27784 20.0674C2.72103 20.0674 2.26064 19.9625 1.89667 19.7527C1.5327 19.5407 1.2772 19.2414 1.13016 18.8546C0.985538 18.4656 0.961433 18.0078 1.05785 17.4811C1.15186 16.9632 1.34348 16.5087 1.63273 16.1175C1.92198 15.7242 2.28354 15.4182 2.71742 15.1997C3.1537 14.979 3.63578 14.8686 4.16366 14.8686C4.50594 14.8686 4.8205 14.9189 5.10734 15.0194C5.39418 15.1178 5.63643 15.2707 5.83408 15.4783C6.03173 15.6859 6.16792 15.9504 6.24264 16.2716C6.31737 16.5906 6.31375 16.9709 6.2318 17.4123L6.17033 17.7761H1.61465L1.75566 16.9763H5.05311C5.09649 16.7491 5.08203 16.5469 5.00972 16.3699C4.93741 16.1907 4.81689 16.0498 4.64816 15.9471C4.47943 15.8444 4.26852 15.793 4.01542 15.793C3.75751 15.793 3.51647 15.8531 3.2923 15.9733C3.07054 16.0913 2.88374 16.2443 2.73188 16.4322C2.58002 16.6201 2.48361 16.8179 2.44263 17.0255L2.29439 17.7925C2.24136 18.1072 2.25341 18.364 2.33055 18.5628C2.40768 18.7617 2.54266 18.9081 2.7355 19.0021C2.92833 19.096 3.17178 19.143 3.46585 19.143C3.65868 19.143 3.83705 19.119 4.00096 19.0709C4.16487 19.0228 4.3107 18.9507 4.43845 18.8546C4.56861 18.7562 4.67708 18.636 4.76386 18.494L5.96063 18.6186C5.82805 18.9114 5.63401 19.1671 5.37851 19.3856C5.12301 19.6019 4.81689 19.7702 4.46014 19.8904C4.10581 20.0084 3.71171 20.0674 3.27784 20.0674Z" fill="#BE212A"/>
<path d="M10.4204 13.2559L9.1911 19.969H7.88224L9.11155 13.2559H10.4204Z" fill="#BE212A"/>
</svg>
