<svg width="32" height="33" viewBox="0 0 32 33" fill="none" xmlns="http://www.w3.org/2000/svg">
<rect y="0.0673828" width="32" height="32" rx="16" fill="#FFEEEF"/>
<path d="M22.6607 6.54346H9.32738C8.8014 6.54346 8.375 6.96985 8.375 7.49584V24.6387C8.375 25.1647 8.8014 25.5911 9.32738 25.5911H22.6607C23.1867 25.5911 23.6131 25.1647 23.6131 24.6387V7.49584C23.6131 6.96985 23.1867 6.54346 22.6607 6.54346Z" stroke="#E72D38" stroke-width="1.25" stroke-linejoin="round"/>
<path d="M15.9907 13.6855C16.4959 13.6855 16.9804 13.4848 17.3376 13.1276C17.6948 12.7704 17.8955 12.2859 17.8955 11.7807C17.8955 11.2756 17.6948 10.7911 17.3376 10.4339C16.9804 10.0767 16.4959 9.87598 15.9907 9.87598C15.4855 9.87598 15.001 10.0767 14.6438 10.4339C14.2866 10.7911 14.0859 11.2756 14.0859 11.7807C14.0859 12.2859 14.2866 12.7704 14.6438 13.1276C15.001 13.4848 15.4855 13.6855 15.9907 13.6855Z" stroke="#E72D38" stroke-width="1.25" stroke-linejoin="round"/>
<path d="M18.8471 16.5437C18.8471 15.7859 18.5461 15.0592 18.0103 14.5234C17.4744 13.9875 16.7477 13.6865 15.99 13.6865C15.2322 13.6865 14.5055 13.9875 13.9696 14.5234C13.4338 15.0592 13.1328 15.7859 13.1328 16.5437M13.1328 19.4008H18.8471M14.2757 22.2579H17.609" stroke="#E72D38" stroke-width="1.25" stroke-linecap="round" stroke-linejoin="round"/>
</svg>
