<svg width="32" height="33" viewBox="0 0 32 33" fill="none" xmlns="http://www.w3.org/2000/svg">
<rect y="0.0673828" width="32" height="32" rx="16" fill="#FFEEEF"/>
<path d="M8.29688 14.3535V22.0678C8.29688 22.5225 8.47749 22.9585 8.79898 23.28C9.12047 23.6015 9.5565 23.7821 10.0112 23.7821H22.0112C22.4658 23.7821 22.9019 23.6015 23.2233 23.28C23.5448 22.9585 23.7254 22.5225 23.7254 22.0678V14.3535" stroke="#E72D38"/>
<path d="M18.4397 23.7819V18.6391C18.4397 18.1844 18.2591 17.7484 17.9376 17.4269C17.6161 17.1054 17.1801 16.9248 16.7254 16.9248H15.0112C14.5565 16.9248 14.1205 17.1054 13.799 17.4269C13.4775 17.7484 13.2969 18.1844 13.2969 18.6391V23.7819" stroke="#E72D38" stroke-miterlimit="16"/>
<path d="M24.4232 13.8084L22.9712 8.72637C22.9405 8.61893 22.8756 8.52442 22.7864 8.45714C22.6971 8.38987 22.5884 8.35349 22.4767 8.35352H19.0078L19.415 13.2427C19.4211 13.3213 19.4459 13.3973 19.4874 13.4644C19.5288 13.5315 19.5857 13.5877 19.6532 13.6284C19.9875 13.8281 20.6407 14.1967 21.1507 14.3535C22.0215 14.6218 23.2935 14.5249 24.0187 14.4358C24.0892 14.4267 24.1568 14.4023 24.2169 14.3643C24.277 14.3264 24.3281 14.2758 24.3666 14.216C24.4052 14.1563 24.4302 14.0889 24.44 14.0185C24.4497 13.948 24.444 13.8763 24.4232 13.8084Z" stroke="#E72D38"/>
<path d="M17.7286 14.3535C18.2155 14.2035 18.8326 13.8615 19.1772 13.6575C19.2575 13.6097 19.3227 13.5402 19.3651 13.4569C19.4076 13.3736 19.4257 13.28 19.4172 13.1869L19.0143 8.35352H13.0143L12.6115 13.1869C12.6029 13.2802 12.6208 13.3739 12.6633 13.4574C12.7058 13.5408 12.771 13.6105 12.8515 13.6584C13.1961 13.8615 13.8132 14.2035 14.3001 14.3535C15.5798 14.7478 16.4489 14.7478 17.7286 14.3535Z" stroke="#E72D38"/>
<path d="M9.04317 8.72637L7.59117 13.8092C7.57068 13.8771 7.5652 13.9486 7.57512 14.0188C7.58503 14.089 7.61011 14.1562 7.6486 14.2157C7.6871 14.2753 7.73809 14.3257 7.79803 14.3636C7.85798 14.4014 7.92544 14.4258 7.99574 14.4349C8.72003 14.5249 9.99289 14.6209 10.8637 14.3535C11.3737 14.1967 12.0277 13.8281 12.3612 13.6292C12.4288 13.5885 12.4858 13.5321 12.5272 13.4649C12.5687 13.3976 12.5934 13.3214 12.5995 13.2427L13.0066 8.35352H9.53774C9.42599 8.35349 9.31727 8.38987 9.22803 8.45714C9.1388 8.52442 9.0739 8.61893 9.04317 8.72637Z" stroke="#E72D38"/>
</svg>
