<svg width="32" height="33" viewBox="0 0 32 33" fill="none" xmlns="http://www.w3.org/2000/svg">
<rect y="0.0673828" width="32" height="32" rx="16" fill="#FFEEEF"/>
<g clip-path="url(#clip0_4188_15202)">
<path d="M9.25 11.5674C9.25 10.9706 9.48705 10.3983 9.90901 9.97639C10.331 9.55444 10.9033 9.31738 11.5 9.31738H18.25C18.8467 9.31738 19.419 9.55444 19.841 9.97639C20.2629 10.3983 20.5 10.9706 20.5 11.5674V24.5049C20.4999 24.6066 20.4723 24.7065 20.42 24.7937C20.3677 24.881 20.2927 24.9525 20.203 25.0005C20.1133 25.0485 20.0123 25.0713 19.9106 25.0664C19.809 25.0616 19.7106 25.0293 19.6259 24.9729L14.875 21.806L10.1241 24.9729C10.0394 25.0293 9.94101 25.0616 9.83938 25.0664C9.73775 25.0713 9.6367 25.0485 9.547 25.0005C9.4573 24.9525 9.3823 24.881 9.33 24.7937C9.2777 24.7065 9.25005 24.6066 9.25 24.5049V11.5674ZM11.5 10.4424C11.2016 10.4424 10.9155 10.5609 10.7045 10.7719C10.4935 10.9829 10.375 11.269 10.375 11.5674V23.4541L14.5634 20.6619C14.6557 20.6004 14.7641 20.5677 14.875 20.5677C14.9859 20.5677 15.0943 20.6004 15.1866 20.6619L19.375 23.4541V11.5674C19.375 11.269 19.2565 10.9829 19.0455 10.7719C18.8345 10.5609 18.5484 10.4424 18.25 10.4424H11.5Z" fill="#E72D38"/>
<path d="M11.8047 8.19238H20.5032C20.8016 8.19238 21.0877 8.31091 21.2987 8.52189C21.5097 8.73287 21.6282 9.01901 21.6282 9.31738V22.5564L21.8791 22.7229C21.9638 22.7793 22.0622 22.8116 22.1638 22.8164C22.2654 22.8213 22.3665 22.7985 22.4562 22.7505C22.5459 22.7025 22.6209 22.631 22.6732 22.5437C22.7255 22.4565 22.7531 22.3566 22.7532 22.2549V9.31738C22.7532 8.72065 22.5161 8.14835 22.0942 7.72639C21.6722 7.30444 21.0999 7.06738 20.5032 7.06738H13.7532C13.3582 7.06739 12.9703 7.17136 12.6282 7.36884C12.2862 7.56632 12.0022 7.85035 11.8047 8.19238Z" fill="#E72D38"/>
</g>
<defs>
<clipPath id="clip0_4188_15202">
<rect width="18" height="18" fill="white" transform="translate(7 7.06738)"/>
</clipPath>
</defs>
</svg>
