<svg width="190" height="191" viewBox="0 0 190 191" fill="none" xmlns="http://www.w3.org/2000/svg">
<g clip-path="url(#clip0_4199_16719)">
<mask id="mask0_4199_16719" style="mask-type:luminance" maskUnits="userSpaceOnUse" x="0" y="0" width="190" height="191">
<path d="M190 0.0673828H0V190.067H190V0.0673828Z" fill="white"/>
</mask>
<g mask="url(#mask0_4199_16719)">
<g opacity="0.829189">
<path d="M95.2392 21.0493C136.018 21.0493 169.127 54.1584 169.127 94.9369C169.127 135.716 136.018 168.825 95.2392 168.825C54.4606 168.825 21.3516 135.716 21.3516 94.9369C21.3516 54.1584 54.4606 21.0493 95.2392 21.0493Z" fill="#41658D" fill-opacity="0.5"/>
</g>
<g opacity="0.393981">
<path d="M94.8497 6.4917C143.912 6.4917 183.746 46.3262 183.746 95.3882C183.746 144.45 143.912 184.285 94.8497 184.285C45.7877 184.285 5.95312 144.45 5.95312 95.3882C5.95312 46.3262 45.7877 6.4917 94.8497 6.4917Z" fill="#42576F" fill-opacity="0.5"/>
</g>
<path d="M95.8759 44.9526C123.053 44.9526 145.119 67.0185 145.119 94.1958C145.119 121.373 123.053 143.439 95.8759 143.439C68.6987 143.439 46.6328 121.373 46.6328 94.1958C46.6328 67.0185 68.6987 44.9526 95.8759 44.9526Z" fill="white"/>
<path d="M95.8759 44.9526C123.053 44.9526 145.119 67.0185 145.119 94.1958C145.119 121.373 123.053 143.439 95.8759 143.439C68.6987 143.439 46.6328 121.373 46.6328 94.1958C46.6328 67.0185 68.6987 44.9526 95.8759 44.9526Z" stroke="#42576F" stroke-width="3"/>
<mask id="mask1_4199_16719" style="mask-type:luminance" maskUnits="userSpaceOnUse" x="73" y="73" width="45" height="38">
<path d="M84.1072 84.3909L73.6484 92.126L90.9707 110.865L117.673 82.5145L108.472 73.3413L89.8812 91.2545L84.1072 84.3909Z" fill="white"/>
</mask>
<g mask="url(#mask1_4199_16719)">
<path d="M111.27 80.1919L91.235 100.138L83.4406 92.3937L80.7266 95.018L91.106 105.447L113.678 82.8458L111.27 80.1919Z" fill="#42576F"/>
</g>
</g>
</g>
<defs>
<clipPath id="clip0_4199_16719">
<rect width="190" height="190" fill="white" transform="translate(0 0.0673828)"/>
</clipPath>
</defs>
</svg>
