<svg width="179" height="179" viewBox="0 0 179 179" fill="none" xmlns="http://www.w3.org/2000/svg">
<g opacity="0.829189">
<path d="M90.2392 14.9819C131.018 14.9819 164.127 48.091 164.127 88.8696C164.127 129.648 131.018 162.757 90.2392 162.757C49.4606 162.757 16.3516 129.648 16.3516 88.8696C16.3516 48.091 49.4606 14.9819 90.2392 14.9819Z" fill="#41658D" fill-opacity="0.5"/>
</g>
<g opacity="0.393981">
<path d="M89.8497 0.424316C138.912 0.424316 178.746 40.2589 178.746 89.3209C178.746 138.383 138.912 178.217 89.8497 178.217C40.7877 178.217 0.953125 138.383 0.953125 89.3209C0.953125 40.2589 40.7877 0.424316 89.8497 0.424316Z" fill="#42576F" fill-opacity="0.5"/>
</g>
<path d="M90.8759 38.8853C118.053 38.8853 140.119 60.9511 140.119 88.1284C140.119 115.306 118.053 137.371 90.8759 137.371C63.6987 137.371 41.6328 115.306 41.6328 88.1284C41.6328 60.9511 63.6987 38.8853 90.8759 38.8853Z" fill="white"/>
<path d="M90.8759 38.8853C118.053 38.8853 140.119 60.9511 140.119 88.1284C140.119 115.306 118.053 137.371 90.8759 137.371C63.6987 137.371 41.6328 115.306 41.6328 88.1284C41.6328 60.9511 63.6987 38.8853 90.8759 38.8853Z" stroke="#42576F" stroke-width="3"/>
<mask id="mask0_4199_16723" style="mask-type:luminance" maskUnits="userSpaceOnUse" x="68" y="67" width="45" height="38">
<path d="M79.1072 78.3236L68.6484 86.0586L85.9707 104.797L112.673 76.4471L103.472 67.2739L84.8812 85.1871L79.1072 78.3236Z" fill="white"/>
</mask>
<g mask="url(#mask0_4199_16723)">
<path d="M106.27 74.1245L86.235 94.071L78.4406 86.3263L75.7266 88.9506L86.106 99.3797L108.678 76.7784L106.27 74.1245Z" fill="#42576F"/>
</g>
</svg>
