<svg width="80" height="80" viewBox="0 0 80 80" fill="none" xmlns="http://www.w3.org/2000/svg">
<rect width="80" height="80" rx="40" fill="#FFEEEF"/>
<path d="M43.0002 48.9999C43.0002 49.7955 42.6841 50.5586 42.1215 51.1212C41.5589 51.6838 40.7958 51.9999 40.0002 51.9999C39.2045 51.9999 38.4414 51.6838 37.8788 51.1212C37.3162 50.5586 37.0002 49.7955 37.0002 48.9999C37.0002 48.2042 37.3162 47.4412 37.8788 46.8786C38.4414 46.316 39.2045 45.9999 40.0002 45.9999C40.7958 45.9999 41.5589 46.316 42.1215 46.8786C42.6841 47.4412 43.0002 48.2042 43.0002 48.9999ZM38.0002 39.9999C38.0002 40.5303 38.2109 41.039 38.5859 41.4141C38.961 41.7892 39.4697 41.9999 40.0002 41.9999C40.5306 41.9999 41.0393 41.7892 41.4144 41.4141C41.7894 41.039 42.0002 40.5303 42.0002 39.9999V29.9999C42.0002 29.4695 41.7894 28.9607 41.4144 28.5857C41.0393 28.2106 40.5306 27.9999 40.0002 27.9999C39.4697 27.9999 38.961 28.2106 38.5859 28.5857C38.2109 28.9607 38.0002 29.4695 38.0002 29.9999V39.9999ZM35.6362 18.5479C36.0702 17.7717 36.7034 17.1253 37.4705 16.6754C38.2376 16.2255 39.1108 15.9883 40.0002 15.9883C40.8895 15.9883 41.7627 16.2255 42.5298 16.6754C43.2969 17.1253 43.9301 17.7717 44.3642 18.5479L63.3642 52.5559C63.7894 53.3166 64.0085 54.1752 63.9997 55.0466C63.9909 55.918 63.7544 56.772 63.3138 57.5239C62.8732 58.2758 62.2437 58.8994 61.4877 59.333C60.7318 59.7667 59.8756 59.9952 59.0042 59.9959H20.9842C20.1123 59.9958 19.2557 59.7679 18.4992 59.3345C17.7427 58.9012 17.1126 58.2776 16.6715 57.5256C16.2305 56.7736 15.9937 55.9194 15.9846 55.0476C15.9756 54.1758 16.1947 53.3168 16.6202 52.5559L35.6362 18.5479ZM40.8722 20.4999C40.7855 20.3441 40.6588 20.2143 40.5051 20.1239C40.3515 20.0335 40.1764 19.9858 39.9982 19.9858C39.8199 19.9858 39.6448 20.0335 39.4912 20.1239C39.3375 20.2143 39.2108 20.3441 39.1242 20.4999L20.1202 54.5079C20.0351 54.66 19.9913 54.8317 19.9931 55.006C19.9948 55.1803 20.0421 55.3511 20.1302 55.5015C20.2184 55.6519 20.3443 55.7766 20.4954 55.8633C20.6466 55.95 20.8179 55.9957 20.9922 55.9959H59.0042C59.1785 55.9957 59.3497 55.95 59.5009 55.8633C59.6521 55.7766 59.778 55.6519 59.8661 55.5015C59.9542 55.3511 60.0015 55.1803 60.0033 55.006C60.005 54.8317 59.9612 54.66 59.8762 54.5079L40.8722 20.4999Z" fill="#E72D38"/>
</svg>
